<?xml version="1.0" encoding="UTF-8"?>
<svg id="Capa_1" data-name="Capa 1" xmlns="http://www.w3.org/2000/svg" xmlns:xlink="http://www.w3.org/1999/xlink" version="1.1" viewBox="0 0 48.19 48.19">
  <defs>
    <style>
      .cls-1 {
        fill: url(#Degradado_sin_nombre_3);
      }

      .cls-1, .cls-2 {
        stroke-width: 0px;
      }

      .cls-2 {
        fill: #fcfcfc;
      }
    </style>
    <linearGradient id="Degradado_sin_nombre_3" data-name="Degradado sin nombre 3" x1="24.09" y1="43.31" x2="24.09" y2="4.88" gradientUnits="userSpaceOnUse">
      <stop offset="0" stop-color="#da005b"/>
      <stop offset=".49" stop-color="#db26f9"/>
      <stop offset="1" stop-color="#8a2cf9"/>
    </linearGradient>
  </defs>
  <circle class="cls-1" cx="24.09" cy="24.09" r="19.21"/>
  <g>
    <path class="cls-2" d="M25.58,21.47c.32-.35.58-.71.9-1.02,1-.94,2.17-1.41,3.55-1.4.76,0,1.5.06,2.23.27,1.67.48,2.64,1.63,3.1,3.26.35,1.22.41,2.48.41,3.73,0,2.65,0,5.31,0,7.96,0,.25-.07.31-.31.31-1.37-.01-2.73-.01-4.1,0-.24,0-.29-.07-.29-.3,0-2.53,0-5.05,0-7.58,0-.63-.04-1.27-.22-1.88-.33-1.13-1.14-1.71-2.33-1.65-1.62.09-2.46.89-2.67,2.54-.05.39-.07.79-.07,1.18,0,2.46,0,4.91,0,7.37,0,.24-.06.32-.31.31-1.38-.01-2.75-.01-4.13,0-.22,0-.28-.06-.28-.28,0-4.86,0-9.72,0-14.59,0-.24.08-.3.31-.29,1.31,0,2.62.01,3.92,0,.24,0,.3.08.3.3-.01.58,0,1.16,0,1.74Z"/>
    <path class="cls-2" d="M18.09,27.03c0,2.41,0,4.81,0,7.22,0,.27-.07.35-.34.35-1.37-.02-2.73-.01-4.1,0-.22,0-.29-.05-.28-.28,0-4.87,0-9.74,0-14.61,0-.2.05-.27.26-.27,1.39,0,2.77.01,4.16,0,.27,0,.3.1.3.33,0,2.43,0,4.85,0,7.28Z"/>
    <path class="cls-2" d="M18.47,14.6c0,1.51-1.22,2.74-2.73,2.74-1.49,0-2.72-1.23-2.73-2.72,0-1.5,1.23-2.74,2.73-2.74,1.49,0,2.72,1.23,2.73,2.72Z"/>
  </g>
</svg>