<svg width="71" height="67" viewBox="0 0 71 67" fill="none" xmlns="http://www.w3.org/2000/svg">
<ellipse cx="35.5" cy="33.5" rx="35.5" ry="33.5" fill="#828193" fill-opacity="0.2"/>
<path d="M30.7064 22.3429L35.0637 24.1383C35.1762 24.1851 35.3034 24.208 35.4299 24.208C35.5564 24.208 35.6832 24.1849 35.7961 24.1383L40.1534 22.3429C40.3768 22.251 40.5134 22.0817 40.5134 21.8997V18.3087C40.5134 18.1267 40.3768 17.9574 40.153 17.8655L35.7957 16.0701C35.5697 15.9766 35.2894 15.9766 35.0638 16.0701L30.7064 17.8655C30.4826 17.9574 30.346 18.1267 30.346 18.3087V21.8997C30.346 22.0817 30.4826 22.251 30.7064 22.3429ZM31.7984 19.2019L34.7034 20.3988V22.8021L31.7984 21.6052V19.2019ZM36.1561 22.8021V20.3988L39.0611 19.2019V21.6052L36.1561 22.8021ZM35.4299 17.1071L38.3457 18.3086L35.4299 19.5102L32.5137 18.3086L35.4299 17.1071Z" fill="white"/>
<path d="M50.6811 29.3379H20.1789C18.9777 29.3379 18 30.0285 18 30.8769V45.241C18 46.0894 18.9777 46.78 20.1789 46.78H50.6811C51.8823 46.78 52.86 46.0894 52.86 45.241L52.8596 30.8769C52.8596 30.0284 51.8823 29.3381 50.6812 29.3381L50.6811 29.3379ZM51.4073 45.2405C51.4073 45.5231 51.0819 45.7534 50.6811 45.7534H20.1789C19.7781 45.7534 19.4527 45.5231 19.4527 45.2405L19.4523 30.8764C19.4523 30.5939 19.7777 30.3635 20.1785 30.3635H50.6808C51.0815 30.3635 51.407 30.5939 51.407 30.8764L51.4073 45.2405Z" fill="white"/>
<path d="M49.229 31.39H21.631C21.2295 31.39 20.9048 31.6198 20.9048 31.9029V44.2148C20.9048 44.4979 21.2295 44.7278 21.631 44.7278H49.229C49.6304 44.7278 49.9551 44.4979 49.9551 44.2148V31.9029C49.9551 31.6196 49.6308 31.39 49.229 31.39ZM48.5028 32.4158V40.9246L42.4801 36.6705C42.1961 36.4699 41.737 36.4699 41.453 36.6705L37.2459 39.6422L30.1337 34.6185C29.8497 34.4179 29.3906 34.4179 29.1066 34.6185L22.3574 39.3856V32.416L48.5028 32.4158ZM22.3578 43.7014V40.8358L29.6203 35.7059L36.2189 40.3669L34.9168 41.2866L35.9439 42.0121L41.967 37.7579L48.5033 42.3749V43.7013L22.3578 43.7014Z" fill="white"/>
<path d="M36.882 37.0328C38.0832 37.0328 39.0608 36.3421 39.0608 35.4937C39.0608 34.6452 38.0831 33.9547 36.882 33.9547C35.6808 33.9547 34.7031 34.6453 34.7031 35.4937C34.7031 36.3424 35.6809 37.0328 36.882 37.0328ZM36.882 34.9808C37.2827 34.9808 37.6082 35.2112 37.6082 35.4937C37.6082 35.7763 37.2827 36.0067 36.882 36.0067C36.4812 36.0067 36.1558 35.7763 36.1558 35.4937C36.1558 35.2112 36.4812 34.9808 36.882 34.9808Z" fill="white"/>
<path d="M34.7031 25.2343H36.1554V26.2602H34.7031V25.2343Z" fill="white"/>
<path d="M27.4414 19.5909H28.8937V20.6167H27.4414V19.5909Z" fill="white"/>
<path d="M24.5361 19.5909H25.9885V20.6167H24.5361V19.5909Z" fill="white"/>
<path d="M44.8716 19.5909H46.3239V20.6167H44.8716V19.5909Z" fill="white"/>
<path d="M41.9663 19.5909H43.4186V20.6167H41.9663V19.5909Z" fill="white"/>
<path d="M34.7031 27.2858H36.1554V28.3116H34.7031V27.2858Z" fill="white"/>
</svg>
